# xmcd
#
# Track frame offsets:
#	150
#	15658
#	31690
#	48538
#	66055
#	78339
#	94218
#	110230
#	126407
#	150278
#	170749
#	181416
#
# Disc length: 2982 seconds
#
# Revision: 0
# Processed by: cddbd v1.5.2PL0 Copyright (c) Steve Scherf et al.
# Submitted via: dBpowerAMP V4.0
#
DISCID=990ba40c
DTITLE=Eric Bibb - Diamond Days
DYEAR=2006
DGENRE=Blues
TTITLE0=Tall Cotton
TTITLE1=Destiny Blues
TTITLE2=Shine On
TTITLE3=So Glad
TTITLE4=Storybook Hero
TTITLE5=Diamond Days
TTITLE6=Dr Shine
TTITLE7=Heading Home
TTITLE8=In My Father's House (Live)
TTITLE9=Forgivness Is Gold
TTITLE10=Buckets Of Rain
TTITLE11=Still Livin' On
EXTD=
EXTT0=
EXTT1=
EXTT2=
EXTT3=
EXTT4=
EXTT5=
EXTT6=
EXTT7=
EXTT8=
EXTT9=
EXTT10=
EXTT11=
PLAYORDER=
